<svg aria-hidden="true" style="position: absolute; width: 0; height: 0; overflow: hidden;" version="1.1" xmlns="http://www.w3.org/2000/svg" xmlns:xlink="http://www.w3.org/1999/xlink">
<defs>
<symbol id="icon-Vector" viewBox="0 0 32 32">
<path d="M31.551 29.302l-5.933-5.889c2.303-2.873 3.418-6.521 3.116-10.192s-1.997-7.087-4.738-9.545-6.319-3.772-9.998-3.671c-3.679 0.101-7.18 1.608-9.783 4.213s-4.109 6.108-4.21 9.79c-0.101 3.682 1.212 7.263 3.668 10.006s5.87 4.44 9.538 4.742c3.668 0.302 7.313-0.814 10.184-3.119l5.885 5.889c0.149 0.15 0.326 0.269 0.52 0.35s0.404 0.123 0.615 0.123c0.211 0 0.42-0.042 0.615-0.123s0.372-0.2 0.52-0.35c0.288-0.298 0.449-0.697 0.449-1.112s-0.161-0.814-0.449-1.112zM14.425 25.638c-2.214 0-4.378-0.657-6.219-1.888s-3.275-2.98-4.123-5.027c-0.847-2.047-1.069-4.299-0.637-6.472s1.498-4.169 3.063-5.736c1.565-1.567 3.56-2.633 5.731-3.066s4.422-0.21 6.467 0.637c2.045 0.848 3.794 2.284 5.023 4.126s1.886 4.008 1.886 6.223c0 2.971-1.179 5.82-3.278 7.921s-4.946 3.281-7.915 3.281z"></path>
</symbol>
</defs>
</svg>
