<svg aria-hidden="true" version="1.1" xmlns="http://www.w3.org/2000/svg"
    xmlns:xlink="http://www.w3.org/1999/xlink">
    <defs>
        <symbol id="arrow-right" viewBox="0 0 32 32">
            <path fill="none" stroke="#003459" style="stroke: var(--color2, #003459)"
                stroke-linejoin="round" stroke-linecap="round" stroke-miterlimit="4"
                stroke-width="2.4" d="M13.333 10.667l5.333 5.333-5.333 5.333"></path>
        </symbol>
        <symbol id="play" viewBox="0 0 32 32">
            <path
                d="M16 0c-8.837 0-16 7.163-16 16s7.163 16 16 16 16-7.163 16-16-7.163-16-16-16zM16 29c-7.18 0-13-5.82-13-13s5.82-13 13-13 13 5.82 13 13-5.82 13-13 13zM12 9l12 7-12 7z"></path>
        </symbol>
        <symbol id="present" viewBox="0 0 32 32">
            <path fill="#fc1a40" style="fill: var(--color3, #fc1a40)"
                d="M6.029 16.225l3.037-1.106c0.094-0.037 0.206-0.056 0.319-0.056h19.462c0.525 0 0.938 0.412 0.938 0.938v13.188c0 1.556-1.256 2.812-2.812 2.812h-18.75c-1.556 0-2.813-1.256-2.813-2.812v-12.081c0-0.394 0.244-0.75 0.619-0.881z"></path>
            <path fill="#c60034" style="fill: var(--color4, #c60034)"
                d="M5.41 17.106v12.081c0 1.556 1.256 2.812 2.813 2.812h9.375v-16.938h-8.213c-0.113 0-0.225 0.019-0.319 0.056l-3.037 1.106c-0.375 0.131-0.619 0.488-0.619 0.881z"></path>
            <path fill="#fe9923" style="fill: var(--color5, #fe9923)"
                d="M5.748 6.112c0.319-1.294 1.275-2.306 2.569-2.719 1.275-0.394 2.644-0.112 3.638 0.787l2.175 1.913 0.431-2.869c0.206-1.313 1.050-2.419 2.306-2.944 0.244-0.094 0.488-0.169 0.731-0.206 1.031-0.206 2.1 0.019 2.963 0.656 1.144 0.825 1.725 2.213 1.537 3.6-0.206 1.388-1.144 2.569-2.475 3.038l-2.025 0.731-2.494 0.919c-0.019 0-0.019 0-0.019 0l-4.331 1.594c-0.431 0.15-0.881 0.225-1.312 0.225-0.919 0-1.819-0.338-2.531-0.975-1.050-0.938-1.5-2.381-1.162-3.75z"></path>
            <path fill="#fe8821" style="fill: var(--color6, #fe8821)"
                d="M6.91 9.862c0.713 0.637 1.613 0.975 2.531 0.975 0.431 0 0.881-0.075 1.312-0.225l4.331-1.594c0 0 0 0 0.019 0l2.494-0.919v-8.025c-0.244 0.038-0.488 0.112-0.731 0.206-1.256 0.525-2.1 1.631-2.306 2.944l-0.431 2.869-2.175-1.913c-0.994-0.9-2.363-1.181-3.637-0.787-1.294 0.413-2.25 1.425-2.569 2.719-0.338 1.369 0.112 2.813 1.162 3.75z"></path>
            <path fill="#ff3e75" style="fill: var(--color7, #ff3e75)"
                d="M2.204 14.631l1.275 3.525c0.15 0.375 0.506 0.6 0.881 0.6 0.112 0 0.225-0.019 0.319-0.056l9.694-3.525 0.881-2.906 2.344 0.525 2.062 0.469 9.694-3.525c0.488-0.187 0.731-0.731 0.562-1.2l-1.294-3.525c-0.244-0.713-0.769-1.275-1.444-1.594s-1.444-0.356-2.156-0.094l-7.931 2.887c0 0-2.025 3.675-2.081 3.675-0.038 0-0.844-0.45-1.631-0.881s-1.575-0.881-1.575-0.881l-7.912 2.887c-0.712 0.262-1.275 0.788-1.594 1.463s-0.356 1.444-0.094 2.156z"></path>
            <path fill="#fc1a40" style="fill: var(--color3, #fc1a40)"
                d="M2.204 14.631l1.275 3.525c0.15 0.375 0.506 0.6 0.881 0.6 0.112 0 0.225-0.019 0.319-0.056l9.694-3.525 0.881-2.906 2.344 0.525v-6.769l-0.506 0.187c0 0-2.025 3.675-2.081 3.675-0.038 0-0.844-0.45-1.631-0.881s-1.575-0.881-1.575-0.881l-7.912 2.887c-0.712 0.262-1.275 0.788-1.594 1.463s-0.356 1.444-0.094 2.156z"></path>
            <path fill="#fcbf29" style="fill: var(--color8, #fcbf29)"
                d="M20.41 15.063v16.938h-5.625v-16.938h5.625z"></path>
            <path fill="#fcbf29" style="fill: var(--color8, #fcbf29)"
                d="M17.092 6.213l0.506 1.388 2.063 5.663-2.063 0.75-3.225 1.162-2.569-7.050 5.288-1.913z"></path>
            <path fill="#fe9923" style="fill: var(--color5, #fe9923)"
                d="M14.785 15.063h2.812v16.938h-2.812v-16.938z"></path>
            <path fill="#fe9923" style="fill: var(--color5, #fe9923)"
                d="M11.804 8.125l2.569 7.050 0.881-0.319 2.344-0.844v-6.413l-0.506-1.388-5.288 1.913z"></path>
        </symbol>
        <symbol id="point" viewBox="0 0 32 32">
            <path fill="#667479" style="fill: var(--color1, #667479)"
                d="M23.665 21.984c2.112-2.112 3.168-4.704 3.168-7.68s-1.056-5.568-3.168-7.584c-2.016-2.112-4.608-3.168-7.584-3.168s-5.568 1.056-7.68 3.168c-2.112 2.016-3.168 4.608-3.168 7.584s1.056 5.568 3.168 7.68c2.112 2.112 4.704 3.168 7.68 3.168s5.568-1.056 7.584-3.168z"></path>
        </symbol>
        <symbol id="header-logo" viewBox="0 0 92 32">
            <path fill="#103559" style="fill: var(--color9, #103559)"
                d="M26.055 26.105c0.514 0 0.939 0.174 1.28 0.518 0.35 0.344 0.518 0.772 0.518 1.281s-0.168 0.929-0.518 1.281c-0.341 0.344-0.766 0.518-1.28 0.518h-1.107v1.876h-0.893v-5.469h2v-0.004zM26.055 28.855c0.526 0 0.905-0.399 0.905-0.955s-0.379-0.955-0.905-0.955h-1.107v1.905h1.107v0.004z"></path>
            <path fill="#103559" style="fill: var(--color9, #103559)"
                d="M29.197 30.013c0.129 0.548 0.632 0.85 1.313 0.85 0.467 0 0.819-0.153 1.059-0.446l0.73 0.376c-0.401 0.525-1.002 0.787-1.794 0.787-0.663 0-1.206-0.18-1.616-0.532-0.41-0.36-0.614-0.814-0.614-1.362s0.205-0.987 0.605-1.347c0.401-0.368 0.926-0.548 1.558-0.548 0.597 0 1.091 0.188 1.474 0.556 0.387 0.368 0.583 0.822 0.583 1.347 0 0.078-0.009 0.188-0.031 0.325h-3.263l-0.004-0.004zM31.601 29.379c-0.125-0.583-0.592-0.889-1.171-0.889-0.654 0-1.113 0.341-1.238 0.889h2.408z"></path>
            <path fill="#103559" style="fill: var(--color9, #103559)"
                d="M35.028 28.437h-0.969v1.881c0 0.502 0.327 0.494 0.969 0.464v0.762c-1.292 0.157-1.814-0.196-1.814-1.221v-1.881h-0.718v-0.817h0.718v-0.847l0.845-0.251v1.098h0.969v0.813z"></path>
            <path fill="#103559" style="fill: var(--color9, #103559)"
                d="M37.109 29.345c0.571 0.122 1.31 0.353 1.294 1.125 0 0.345-0.141 0.619-0.414 0.815s-0.615 0.294-1.029 0.294c-0.731 0-1.274-0.317-1.511-0.843l0.687-0.388c0.125 0.345 0.398 0.521 0.82 0.521s0.631-0.137 0.631-0.404c0-0.231-0.309-0.368-0.703-0.462-0.555-0.137-1.302-0.353-1.286-1.113 0-0.333 0.125-0.6 0.386-0.799 0.257-0.204 0.587-0.302 0.969-0.302 0.615 0 1.109 0.282 1.37 0.752l-0.675 0.368c-0.125-0.274-0.362-0.411-0.695-0.411-0.301 0-0.539 0.129-0.539 0.384 0 0.239 0.309 0.361 0.695 0.47v-0.008z"></path>
            <path fill="#103559" style="fill: var(--color9, #103559)"
                d="M43.468 26.91c-0.665-0.054-0.988 0.2-0.988 0.758v0.075h0.988v0.8h-0.988v3.036h-0.906v-3.036h-0.638v-0.8h0.638v-0.075c0-1.050 0.656-1.624 1.895-1.558v0.8z"></path>
            <path fill="#103559" style="fill: var(--color9, #103559)"
                d="M44.506 31.031c-0.408-0.368-0.617-0.814-0.617-1.347s0.208-0.979 0.617-1.347c0.408-0.368 0.912-0.548 1.494-0.548s1.085 0.18 1.494 0.548c0.408 0.368 0.616 0.814 0.616 1.347s-0.208 0.979-0.616 1.347c-0.408 0.368-0.903 0.548-1.494 0.548s-1.085-0.18-1.494-0.548zM46 30.823c0.352 0 0.647-0.11 0.886-0.325s0.36-0.489 0.36-0.814c0-0.325-0.122-0.599-0.36-0.814s-0.534-0.325-0.886-0.325-0.647 0.11-0.886 0.325c-0.239 0.215-0.36 0.489-0.36 0.814s0.122 0.599 0.36 0.814 0.534 0.325 0.886 0.325z"></path>
            <path fill="#103559" style="fill: var(--color9, #103559)"
                d="M49.402 28.481c0.218-0.461 0.638-0.692 1.241-0.692v0.87c-0.328-0.024-0.62 0.053-0.869 0.222-0.249 0.166-0.371 0.441-0.371 0.821v1.877h-0.869v-3.725h0.869v0.627z"></path>
            <path fill="#103559" style="fill: var(--color9, #103559)"
                d="M56.972 30.016c0 0.446-0.15 0.82-0.453 1.117s-0.671 0.446-1.108 0.446h-2.237v-5.474h2.071c0.425 0 0.789 0.149 1.080 0.437 0.299 0.289 0.445 0.65 0.445 1.079 0 0.476-0.178 0.845-0.53 1.117 0.453 0.251 0.728 0.705 0.728 1.274l0.004 0.004zM54.032 26.95v1.44h1.213c0.38 0 0.672-0.314 0.672-0.718s-0.291-0.718-0.672-0.718h-1.213v-0.004zM55.411 30.734c0.396 0 0.708-0.335 0.708-0.764s-0.312-0.764-0.708-0.764h-1.379v1.533h1.379v-0.004z"></path>
            <path fill="#103559" style="fill: var(--color9, #103559)"
                d="M58.737 30.013c0.129 0.548 0.632 0.85 1.312 0.85 0.467 0 0.818-0.153 1.058-0.446l0.729 0.376c-0.4 0.525-1.001 0.787-1.792 0.787-0.663 0-1.205-0.18-1.614-0.532-0.409-0.36-0.614-0.814-0.614-1.362s0.205-0.987 0.605-1.347c0.4-0.368 0.925-0.548 1.556-0.548 0.596 0 1.090 0.188 1.476 0.556s0.583 0.822 0.583 1.347c0 0.078-0.009 0.188-0.031 0.325h-3.26l-0.009-0.004zM61.138 29.379c-0.124-0.583-0.591-0.889-1.17-0.889-0.654 0-1.112 0.341-1.236 0.889h2.406z"></path>
            <path fill="#103559" style="fill: var(--color9, #103559)"
                d="M63.696 29.345c0.571 0.122 1.31 0.353 1.294 1.125 0 0.345-0.141 0.619-0.414 0.815s-0.615 0.294-1.029 0.294c-0.731 0-1.274-0.317-1.511-0.843l0.687-0.388c0.125 0.345 0.398 0.521 0.82 0.521s0.631-0.137 0.631-0.404c0-0.231-0.309-0.368-0.703-0.462-0.555-0.137-1.302-0.353-1.286-1.113 0-0.333 0.125-0.6 0.386-0.799 0.257-0.204 0.587-0.302 0.969-0.302 0.615 0 1.109 0.282 1.37 0.752l-0.675 0.368c-0.125-0.274-0.362-0.411-0.695-0.411-0.301 0-0.539 0.129-0.539 0.384 0 0.239 0.309 0.361 0.695 0.47v-0.008z"></path>
            <path fill="#103559" style="fill: var(--color9, #103559)"
                d="M67.945 28.437h-0.967v1.881c0 0.502 0.327 0.494 0.967 0.464v0.762c-1.289 0.157-1.811-0.196-1.811-1.221v-1.881h-0.721v-0.817h0.721v-0.847l0.844-0.251v1.098h0.967v0.813z"></path>
            <path fill="#103559" style="fill: var(--color9, #103559)"
                d="M19.991 2.572c-0.11-1.089-0.548-1.308-1.398-1.308h-3.619c-0.794 0-0.986 0.135-1.287 1.009l-2.714 8.826-2.714-8.826c-0.302-0.874-0.493-1.009-1.287-1.009h-3.623c-0.85 0-1.287 0.22-1.398 1.308l-1.92 17.327c-0.081 0.625-0.025 0.874 0.522 0.954l4.142 0.599c0.629 0.080 0.769-0.055 0.85-0.519l0.905-8.117 1.946 7.602c0.191 0.625 0.438 0.874 1.070 0.874h3.016c0.629 0 0.879-0.245 1.070-0.874l1.92-7.602 0.93 8.117c0.081 0.464 0.221 0.599 0.85 0.519l4.142-0.599c0.548-0.080 0.603-0.325 0.522-0.954l-1.924-17.327z"></path>
            <path fill="#103559" style="fill: var(--color9, #103559)"
                d="M29.963 5.895c-4.648 0-7.174 3.186-7.174 7.579s2.526 7.579 7.174 7.579c4.648 0 7.174-3.186 7.174-7.579s-2.526-7.579-7.174-7.579zM29.963 16.095c-1.116 0-1.714-1.045-1.714-2.626s0.598-2.626 1.714-2.626c1.116 0 1.714 1.045 1.714 2.626s-0.598 2.626-1.714 2.626z"></path>
            <path fill="#103559" style="fill: var(--color9, #103559)"
                d="M47.561 5.903c-0.953 0-8.082 0.189-8.546 0.841-0.19 0.219-0.19 0.517-0.19 1.031l0.219 11.839c0.025 1.085 0.274 1.439 1.223 1.439h3.322c0.953 0 1.223-0.353 1.223-1.439v-8.174c0.409-0.135 0.544-0.189 1.008-0.219 0.624-0.025 0.923 0.164 1.117 0.677 0.135 0.543 0.164 1.359 0.164 2.47l-0.025 5.242c0 1.085 0.299 1.439 1.252 1.439h3.402c0.953 0 1.197-0.353 1.223-1.439l0.219-7.223c0.025-1.767-0.354-3.395-1.252-4.59-0.953-1.195-2.369-1.902-4.355-1.902l-0.004 0.008z"></path>
            <path fill="#103559" style="fill: var(--color9, #103559)"
                d="M60.331 7.579h-3.42c-0.936 0-1.205 0.323-1.205 1.408v10.632c0 1.081 0.269 1.433 1.205 1.433h3.474c0.936 0 1.23-0.352 1.23-1.433l-0.054-10.632c0-1.056-0.294-1.408-1.23-1.408z"></path>
            <path fill="#103559" style="fill: var(--color9, #103559)"
                d="M58.872 0.421c-2.025 0-3.165 1.247-3.165 2.947s1.14 2.947 3.165 2.947c2.026 0 3.165-1.247 3.165-2.947s-1.14-2.947-3.165-2.947z"></path>
            <path fill="#103559" style="fill: var(--color9, #103559)"
                d="M73.558 6.336h-2.104v-3.66c0-1.084-0.278-1.412-1.242-1.412h-3.265c-0.968 0-1.272 0.353-1.272 1.412v3.66h-1.658c-0.913 0-1.135 0.164-1.135 1.004v2.959c0 0.84 0.223 1.004 1.135 1.004h1.658v5.152c0 3.471 1.851 5.018 5.338 5.018 1.024 0 2.048-0.080 3.016-0.273 0.416-0.080 0.527-0.189 0.527-0.597l-0.137-4.152c0-0.353-0.193-0.488-0.553-0.408-0.304 0.080-0.608 0.134-1.024 0.134-0.801 0-1.384-0.273-1.384-1.437v-3.446h2.104c0.913 0 1.135-0.164 1.135-1.004v-2.959c0-0.841-0.223-1.004-1.135-1.004l-0.004 0.008z"></path>
            <path fill="#103559" style="fill: var(--color9, #103559)"
                d="M82.715 5.895c-4.648 0-7.174 3.186-7.174 7.579s2.526 7.579 7.174 7.579c4.649 0 7.174-3.186 7.174-7.579s-2.526-7.579-7.174-7.579zM82.715 16.095c-1.115 0-1.713-1.045-1.713-2.626s0.598-2.626 1.713-2.626c1.116 0 1.714 1.045 1.714 2.626s-0.598 2.626-1.714 2.626z"></path>
            <path fill="#103559" style="fill: var(--color9, #103559)"
                d="M91.224 6.488c-0.487-0.352-1.286-0.149-1.79 0.453s-0.518 1.376-0.034 1.728c0.487 0.352 1.286 0.149 1.79-0.453s0.517-1.376 0.034-1.728z"></path>
            <path fill="#103559" style="fill: var(--color9, #103559)"
                d="M79.748 5.465c0.574-0.088 0.949-0.813 0.838-1.622s-0.66-1.396-1.234-1.308-0.949 0.813-0.838 1.622c0.111 0.809 0.66 1.396 1.233 1.308z"></path>
            <path fill="#103559" style="fill: var(--color9, #103559)"
                d="M87.175 6.209c0.793 0.4 1.994-0.357 2.677-1.693s0.596-2.746-0.202-3.146c-0.793-0.4-1.994 0.357-2.677 1.693s-0.596 2.746 0.202 3.146z"></path>
            <path fill="#103559" style="fill: var(--color9, #103559)"
                d="M83.070 5.046c0.799 0.102 1.574-0.945 1.729-2.335 0.154-1.394-0.368-2.602-1.171-2.704-0.799-0.102-1.574 0.945-1.729 2.335-0.154 1.394 0.368 2.602 1.171 2.704z"></path>
        </symbol>
        <symbol id="paw" viewBox="0 0 27 24">
            <path xmlns="http://www.w3.org/2000/svg" fill="#003459"
                d="M14.093 5.376v0.031c-0 0.606 0.106 1.208 0.314 1.779l-0.012-0.037c0.202 0.556 0.547 1.053 1 1.442l0.004 0.003c0.429 0.379 1.001 0.61 1.627 0.61h0.047c0.826-0.005 1.618-0.328 2.203-0.899 0.64-0.576 1.138-1.287 1.456-2.079l0.013-0.038c0.308-0.749 0.471-1.548 0.478-2.355v-0.035c0-0.624-0.111-1.223-0.314-1.779l0.012 0.037c-0.202-0.556-0.547-1.053-1-1.442l-0.004-0.003c-0.461-0.407-1.063-0.625-1.683-0.61h0.003c-0.826 0.003-1.618 0.327-2.203 0.899-0.633 0.576-1.127 1.284-1.444 2.071l-0.013 0.038c-0.295 0.7-0.469 1.513-0.478 2.364v0.003h-0.005zM19.545 12.925l-0.001 0.084c-0.001 0.752 0.236 1.486 0.678 2.1l-0.008-0.012c0.202 0.285 0.471 0.518 0.784 0.679s0.662 0.245 1.016 0.245l0.101-0.002h-0.005c0.836-0.009 1.64-0.319 2.258-0.87l-0.003 0.003c0.658-0.553 1.19-1.235 1.562-2.002s0.575-1.603 0.597-2.452v-0.008l0.001-0.082c0-0.785-0.251-1.513-0.678-2.11l0.008 0.012c-0.21-0.301-0.495-0.544-0.827-0.707s-0.702-0.24-1.074-0.223h0.005c-0.836 0.009-1.64 0.319-2.258 0.87l0.003-0.003c-0.659 0.556-1.192 1.241-1.564 2.012s-0.575 1.609-0.595 2.461v0.005zM13.261 12.503c-1.489 0.080-2.915 0.615-4.078 1.531l0.014-0.011c-1.423 0.991-2.649 2.229-3.618 3.652l-0.033 0.051c-0.873 1.15-1.383 2.526-1.468 3.957l-0.001 0.020-0.002 0.087c0 0.404 0.101 0.786 0.279 1.121l-0.006-0.013c0.171 0.307 0.439 0.552 0.763 0.699l0.010 0.004c0.297 0.139 0.643 0.248 1.004 0.309l0.024 0.003c0.377 0.058 0.757 0.087 1.138 0.086h0.072c1.051-0.068 2.082-0.314 3.048-0.726l-0.059 0.023c0.912-0.39 1.884-0.627 2.876-0.701l0.032-0.002c1.125 0.082 2.168 0.33 3.137 0.719l-0.068-0.024c1.010 0.398 2.080 0.632 3.167 0.694l0.029 0.001c1.949 0.001 2.923-0.758 2.923-2.279-0.044-1.066-0.357-2.104-0.91-3.022l0.017 0.030c-0.597-1.1-1.346-2.114-2.228-3.012l0.004 0.004c-0.861-0.882-1.846-1.639-2.925-2.249l-0.063-0.033c-0.922-0.564-1.978-0.881-3.063-0.921h-0.012l-0.004 0.002zM9.451 9.206h0.047c0.602 0.001 1.182-0.217 1.629-0.612l-0.002 0.002c0.449-0.384 0.792-0.873 0.996-1.422l0.008-0.024c0.202-0.559 0.305-1.149 0.303-1.742v-0.031c-0.009-0.855-0.184-1.667-0.495-2.411l0.016 0.044c-0.316-0.801-0.813-1.521-1.455-2.106l-0.004-0.003c-0.585-0.572-1.376-0.894-2.202-0.898h-0.048c-0.626 0-1.198 0.232-1.629 0.612l0.002-0.002c-0.447 0.383-0.792 0.869-0.996 1.422l-0.008 0.024c-0.195 0.522-0.307 1.125-0.307 1.753v0.019c0.009 0.825 0.177 1.64 0.495 2.403l-0.016-0.044c0.316 0.805 0.817 1.528 1.465 2.113l0.004 0.004c0.586 0.57 1.377 0.892 2.202 0.896h0.001l-0.006 0.003zM2.566 7.581l-0.094-0.002c-0.746 0-1.404 0.366-1.797 0.925l-0.005 0.007c-0.438 0.616-0.672 1.349-0.67 2.099l0.001 0.086v-0.004c0.020 0.849 0.222 1.684 0.593 2.451s0.902 1.45 1.559 2.003l0.008 0.007c0.618 0.549 1.419 0.858 2.253 0.867h0.002c0.368 0.016 0.735-0.059 1.066-0.219s0.615-0.399 0.826-0.696l0.005-0.007c0.456-0.636 0.69-1.399 0.669-2.176v0.004c-0.020-0.852-0.221-1.69-0.592-2.461s-0.902-1.457-1.56-2.014l-0.008-0.007c-0.617-0.548-1.417-0.855-2.249-0.865h-0.002l-0.004 0.001z" />
        </symbol>
    </defs>
</svg>