<!-- Generated by IcoMoon.io -->
<svg version="1.1" xmlns="http://www.w3.org/2000/svg" width="43" height="32" viewBox="0 0 43 32">
<path d="M42.242 7.466c0 0-0.417-2.942-1.7-4.233-1.625-1.7-3.442-1.708-4.275-1.808-5.967-0.433-14.925-0.433-14.925-0.433h-0.017c0 0-8.958 0-14.925 0.433-0.833 0.1-2.65 0.108-4.275 1.808-1.283 1.292-1.692 4.233-1.692 4.233s-0.433 3.458-0.433 6.908v3.233c0 3.45 0.425 6.908 0.425 6.908s0.417 2.942 1.692 4.233c1.625 1.7 3.758 1.642 4.708 1.825 3.417 0.325 14.508 0.425 14.508 0.425s8.967-0.017 14.933-0.442c0.833-0.1 2.65-0.108 4.275-1.808 1.283-1.292 1.7-4.233 1.7-4.233s0.425-3.45 0.425-6.908v-3.233c0-3.45-0.425-6.908-0.425-6.908zM16.925 21.533v-11.992l11.525 6.017-11.525 5.975z"></path>
</svg>
